<svg xmlns="http://www.w3.org/2000/svg"  viewBox="0 0 100 100" width="100px" height="100px"><path fill="#fff" d="M71.546 52.365h-10.03c-.276 0-.5-.224-.5-.5s.224-.5.5-.5h10.03c.276 0 .5.224.5.5S71.823 52.365 71.546 52.365zM74.428 52.365h-1.446c-.276 0-.5-.224-.5-.5s.224-.5.5-.5h1.446c.276 0 .5.224.5.5S74.704 52.365 74.428 52.365zM78.482 52.365h-2.546c-.276 0-.5-.224-.5-.5s.224-.5.5-.5h2.546c.276 0 .5.224.5.5S78.759 52.365 78.482 52.365zM76.456 48.635H66.84c-.276 0-.5-.224-.5-.5s.224-.5.5-.5h9.616c.276 0 .5.224.5.5S76.733 48.635 76.456 48.635zM65.108 48.635h-.58c-.276 0-.5-.224-.5-.5s.224-.5.5-.5h.58c.276 0 .5.224.5.5S65.385 48.635 65.108 48.635zM62.732 48.635h-1.457c-.276 0-.5-.224-.5-.5s.224-.5.5-.5h1.457c.276 0 .5.224.5.5S63.008 48.635 62.732 48.635zM73.893 50.5h-5.028c-.276 0-.5-.224-.5-.5s.224-.5.5-.5h5.028c.276 0 .5.224.5.5S74.17 50.5 73.893 50.5z"/><path fill="#fff" d="M73.893 48.635h-1.257c-.276 0-.5-.224-.5-.5s.224-.5.5-.5h1.257c.276 0 .5.224.5.5S74.17 48.635 73.893 48.635zM67.41 50.5h-1.759c-.276 0-.5-.224-.5-.5s.224-.5.5-.5h1.759c.276 0 .5.224.5.5S67.687 50.5 67.41 50.5z"/><path fill="#c7ede6" d="M88.662,56.831c0.3-0.616,0.566-1.264,0.796-1.943c2.633-7.77-1.349-17.078-9.733-19.325c-0.906-11.384-8.906-19.193-17.941-20.526c-10.341-1.525-19.814,5.044-22.966,15.485c-3.799-1.346-7.501-1.182-10.99,0.857c-1.583,0.732-3.031,1.812-4.33,3.233c-1.907,2.086-3.147,4.719-3.652,7.495c-0.748,0.118-1.483,0.236-2.176,0.484c-4.04,1.449-6.589,4.431-7.288,8.923c-0.435,2.797,0.443,5.587,0.933,6.714c1.935,4.455,6.422,6.98,10.981,6.312c0.227-0.033,0.557,0.069,0.752,0.233c0.241,7.12,3.698,13.417,8.884,17.014c8.321,5.772,19.027,3.994,25.781-3.921c2.894,2.96,6.338,4.398,10.384,3.876c4.023-0.519,7.147-2.739,9.426-6.349c1.053,0.283,2.051,0.691,3.083,0.804c4.042,0.442,7.324-1.165,9.732-4.8c0.922-1.391,1.793-3.194,1.793-6.354C92.132,61.788,90.839,58.82,88.662,56.831z"/><path fill="#fff" d="M18.327 48.866H8.297c-.276 0-.5-.224-.5-.5s.224-.5.5-.5h10.03c.276 0 .5.224.5.5S18.603 48.866 18.327 48.866zM21.208 48.866h-1.446c-.276 0-.5-.224-.5-.5s.224-.5.5-.5h1.446c.276 0 .5.224.5.5S21.485 48.866 21.208 48.866zM25.262 48.866h-2.546c-.276 0-.5-.224-.5-.5s.224-.5.5-.5h2.546c.276 0 .5.224.5.5S25.539 48.866 25.262 48.866zM25.262 50.731h-9.616c-.276 0-.5-.224-.5-.5s.224-.5.5-.5h9.616c.276 0 .5.224.5.5S25.539 50.731 25.262 50.731zM13.915 50.731h-.58c-.276 0-.5-.224-.5-.5s.224-.5.5-.5h.58c.276 0 .5.224.5.5S14.191 50.731 13.915 50.731zM11.538 50.731h-1.456c-.276 0-.5-.224-.5-.5s.224-.5.5-.5h1.456c.276 0 .5.224.5.5S11.814 50.731 11.538 50.731zM20.674 47.002h-5.027c-.276 0-.5-.224-.5-.5s.224-.5.5-.5h5.027c.276 0 .5.224.5.5S20.95 47.002 20.674 47.002zM20.674 45.137h-1.257c-.276 0-.5-.224-.5-.5s.224-.5.5-.5h1.257c.276 0 .5.224.5.5S20.95 45.137 20.674 45.137zM17.405 52.596h-1.759c-.276 0-.5-.224-.5-.5s.224-.5.5-.5h1.759c.276 0 .5.224.5.5S17.681 52.596 17.405 52.596z"/><path fill="#fdfcef" d="M30.765,77.203c0,0,11.691,0,11.762,0c2.7,0,4.888-2.189,4.888-4.889c0-2.355-1.666-4.321-3.884-4.784c0.026-0.206,0.043-0.415,0.043-0.628c0-2.796-2.267-5.063-5.063-5.063c-1.651,0-3.113,0.794-4.037,2.017c-0.236-3.113-3.017-5.514-6.27-5.116c-2.379,0.291-4.346,2.13-4.784,4.486c-0.14,0.756-0.126,1.489,0.014,2.177c-0.638-0.687-1.546-1.119-2.557-1.119c-1.85,0-3.361,1.441-3.48,3.261c-0.84-0.186-1.754-0.174-2.717,0.188c-1.84,0.691-3.15,2.423-3.227,4.387c-0.109,2.789,2.12,5.085,4.885,5.085c0.21,0,0.948,0,1.118,0h10.151"/><path fill="#472b29" d="M42.527,77.703H30.765c-0.276,0-0.5-0.224-0.5-0.5s0.224-0.5,0.5-0.5h11.762c2.419,0,4.388-1.969,4.388-4.389c0-2.067-1.466-3.873-3.486-4.295c-0.255-0.053-0.426-0.292-0.394-0.55c0.023-0.186,0.039-0.375,0.039-0.567c0-2.516-2.047-4.563-4.563-4.563c-1.438,0-2.765,0.663-3.638,1.818c-0.125,0.166-0.339,0.239-0.54,0.178c-0.199-0.059-0.342-0.234-0.357-0.441c-0.104-1.377-0.779-2.671-1.851-3.549c-1.082-0.887-2.451-1.281-3.86-1.109c-2.166,0.265-3.956,1.943-4.353,4.081c-0.125,0.667-0.12,1.335,0.012,1.986c0.045,0.219-0.062,0.442-0.261,0.544c-0.201,0.103-0.442,0.06-0.595-0.104c-0.574-0.619-1.352-0.959-2.19-0.959c-1.569,0-2.878,1.227-2.981,2.793c-0.01,0.146-0.082,0.28-0.199,0.367c-0.117,0.087-0.268,0.119-0.408,0.088c-0.841-0.186-1.637-0.131-2.433,0.167c-1.669,0.626-2.836,2.209-2.903,3.938c-0.047,1.207,0.387,2.35,1.222,3.218c0.835,0.868,1.959,1.347,3.164,1.347h11.269c0.276,0,0.5,0.224,0.5,0.5s-0.224,0.5-0.5,0.5H16.34c-1.479,0-2.859-0.587-3.884-1.654c-1.025-1.066-1.558-2.469-1.5-3.95c0.083-2.126,1.51-4.069,3.551-4.836c0.8-0.3,1.627-0.4,2.468-0.298c0.376-1.823,1.997-3.182,3.905-3.182c0.684,0,1.354,0.179,1.944,0.509c0-0.385,0.035-0.772,0.107-1.159c0.476-2.562,2.62-4.573,5.215-4.891c1.678-0.208,3.319,0.266,4.615,1.328c1.004,0.823,1.716,1.951,2.038,3.193c1.012-0.916,2.319-1.425,3.714-1.425c3.067,0,5.563,2.496,5.563,5.563c0,0.083-0.002,0.166-0.007,0.249c2.254,0.672,3.848,2.777,3.848,5.164C47.915,75.286,45.498,77.703,42.527,77.703z"/><path fill="#fdfcef" d="M27.932,66.434c-1.808-0.119-3.365,1.13-3.476,2.789c-0.014,0.206-0.005,0.409,0.025,0.606c-0.349-0.394-0.865-0.661-1.458-0.7c-1.085-0.071-2.022,0.645-2.158,1.62c-0.197-0.054-0.403-0.09-0.616-0.104c-1.582-0.104-2.944,0.989-3.042,2.441"/><path fill="#472b29" d="M17.208,73.336c-0.006,0-0.012,0-0.017,0c-0.138-0.009-0.242-0.128-0.233-0.266c0.106-1.587,1.584-2.785,3.307-2.674c0.136,0.009,0.272,0.027,0.409,0.053c0.274-0.968,1.256-1.64,2.366-1.568c0.425,0.028,0.823,0.161,1.163,0.382c0-0.019,0.002-0.037,0.003-0.055c0.121-1.793,1.794-3.141,3.743-3.022c0.138,0.009,0.242,0.128,0.233,0.266s-0.127,0.248-0.266,0.233c-1.652-0.111-3.108,1.037-3.21,2.557c-0.012,0.185-0.004,0.37,0.023,0.551c0.017,0.11-0.041,0.217-0.141,0.265c-0.099,0.047-0.219,0.023-0.293-0.061c-0.318-0.359-0.787-0.584-1.288-0.617c-0.938-0.065-1.775,0.555-1.894,1.405c-0.01,0.071-0.05,0.134-0.11,0.174c-0.06,0.04-0.133,0.051-0.204,0.033c-0.188-0.051-0.379-0.084-0.567-0.096c-1.438-0.105-2.688,0.896-2.775,2.208C17.448,73.235,17.338,73.336,17.208,73.336z"/><path fill="#fdfcef" d="M44.506,68.103c-1.699-0.801-3.664-0.234-4.389,1.267c-0.09,0.186-0.157,0.379-0.201,0.574"/><path fill="#472b29" d="M39.916,70.193c-0.019,0-0.037-0.002-0.056-0.006c-0.135-0.031-0.218-0.166-0.188-0.3c0.05-0.216,0.124-0.427,0.22-0.625c0.783-1.622,2.9-2.243,4.72-1.384c0.125,0.059,0.179,0.208,0.12,0.333c-0.059,0.125-0.209,0.177-0.333,0.12c-1.575-0.741-3.393-0.227-4.057,1.149c-0.08,0.165-0.141,0.34-0.183,0.521C40.133,70.115,40.031,70.193,39.916,70.193z"/><path fill="#ef9922" d="M63.783,74.774H36.134c-5.5,0-10-4.5-10-10V37.125c0-5.5,4.5-10,10-10h27.649c5.5,0,10,4.5,10,10v27.649C73.783,70.274,69.283,74.774,63.783,74.774z"/><path fill="#472b29" d="M63.783,75.474H36.134c-5.9,0-10.7-4.8-10.7-10.7V37.125c0-5.9,4.8-10.7,10.7-10.7h27.649c5.9,0,10.7,4.8,10.7,10.7v27.649C74.483,70.674,69.683,75.474,63.783,75.474z M36.134,27.825c-5.128,0-9.3,4.172-9.3,9.3v27.649c0,5.128,4.172,9.3,9.3,9.3h27.649c5.128,0,9.3-4.172,9.3-9.3V37.125c0-5.128-4.172-9.3-9.3-9.3H36.134z"/><path fill="#472b29" d="M62.561 71.745H37.356c-4.518 0-8.193-3.675-8.193-8.193V38.346c0-4.518 3.675-8.193 8.193-8.193h25.46c.207 0 .375.168.375.375s-.168.375-.375.375h-25.46c-4.104 0-7.443 3.339-7.443 7.443v25.206c0 4.104 3.339 7.443 7.443 7.443h25.206c4.104 0 7.443-3.339 7.443-7.443V49.437c0-.207.168-.375.375-.375s.375.168.375.375v14.115C70.755 68.07 67.079 71.745 62.561 71.745zM70.38 47.543c-.207 0-.375-.168-.375-.375v-3.025c0-.207.168-.375.375-.375s.375.168.375.375v3.025C70.755 47.375 70.587 47.543 70.38 47.543zM70.38 43.005c-.207 0-.375-.168-.375-.375v-1.513c0-.207.168-.375.375-.375s.375.168.375.375v1.513C70.755 42.837 70.587 43.005 70.38 43.005z"/><path fill="#fdfcef" d="M80.606,76.567c1.883,0,3.517,0,3.54,0c2.11,0,3.821-1.674,3.821-3.739c0-1.802-1.302-3.305-3.035-3.66c0.02-0.158,0.034-0.317,0.034-0.48c0-2.139-1.772-3.873-3.957-3.873c-1.29,0-2.433,0.607-3.155,1.543c-0.185-2.381-2.358-4.218-4.9-3.913c-1.859,0.223-3.397,1.629-3.739,3.431c-0.11,0.578-0.098,1.139,0.011,1.665c-0.498-0.525-1.208-0.856-1.998-0.856c-1.446,0-2.627,1.102-2.72,2.494c-0.657-0.142-1.371-0.133-2.123,0.143c-1.438,0.528-2.462,1.853-2.522,3.356c-0.085,2.133,1.657,3.889,3.818,3.889c0.164,0,0.741,0,0.874,0h7.934 M74.129,76.567h0.36"/><path fill="#472b29" d="M84.146,77.067h-3.541c-0.276,0-0.5-0.224-0.5-0.5s0.224-0.5,0.5-0.5h3.541c1.831,0,3.32-1.453,3.32-3.239c0-1.524-1.108-2.857-2.635-3.17c-0.256-0.052-0.429-0.293-0.396-0.553c0.018-0.137,0.03-0.276,0.03-0.417c0-1.86-1.551-3.373-3.457-3.373c-1.092,0-2.098,0.491-2.759,1.348c-0.127,0.164-0.341,0.231-0.539,0.173c-0.198-0.059-0.339-0.234-0.355-0.44c-0.079-1.019-0.565-1.943-1.369-2.603c-0.828-0.679-1.885-0.982-2.973-0.853c-1.646,0.197-3.006,1.442-3.307,3.028c-0.094,0.495-0.09,0.99,0.01,1.471c0.045,0.219-0.06,0.441-0.258,0.544c-0.197,0.104-0.439,0.064-0.595-0.099c-0.428-0.452-1.009-0.7-1.635-0.7c-1.169,0-2.145,0.891-2.221,2.027c-0.01,0.145-0.082,0.279-0.198,0.366c-0.116,0.088-0.264,0.12-0.407,0.089c-0.638-0.138-1.241-0.098-1.845,0.124c-1.262,0.464-2.144,1.631-2.195,2.906c-0.035,0.875,0.283,1.708,0.895,2.344c0.635,0.661,1.496,1.025,2.423,1.025h8.808c0.276,0,0.5,0.224,0.5,0.5s-0.224,0.5-0.5,0.5h-8.808c-1.185,0-2.331-0.485-3.145-1.332c-0.802-0.835-1.218-1.928-1.172-3.077c0.067-1.674,1.212-3.203,2.849-3.805c0.611-0.224,1.243-0.305,1.88-0.245c0.344-1.396,1.629-2.424,3.136-2.424c0.493,0,0.976,0.113,1.414,0.323c0.009-0.241,0.036-0.483,0.082-0.725c0.381-2.01,2.097-3.586,4.17-3.835c1.362-0.16,2.685,0.218,3.727,1.073c0.748,0.613,1.278,1.409,1.546,2.301c0.791-0.648,1.785-1.006,2.842-1.006c2.458,0,4.457,1.961,4.457,4.373c0,0.034,0,0.068-0.001,0.103c1.764,0.555,3.003,2.188,3.003,4.038C88.467,75.165,86.529,77.067,84.146,77.067z M74.488,77.067h-0.359c-0.276,0-0.5-0.224-0.5-0.5s0.224-0.5,0.5-0.5h0.359c0.276,0,0.5,0.224,0.5,0.5S74.764,77.067,74.488,77.067z"/><path fill="#472b29" d="M82.439,71.264c-0.018,0-0.036-0.002-0.055-0.006c-0.135-0.03-0.219-0.164-0.189-0.299c0.037-0.166,0.094-0.327,0.169-0.479c0.604-1.224,2.274-1.676,3.722-1.007c0.125,0.058,0.18,0.207,0.122,0.332c-0.059,0.125-0.207,0.18-0.332,0.122c-1.201-0.556-2.578-0.208-3.063,0.774c-0.058,0.116-0.101,0.24-0.129,0.367C82.657,71.185,82.554,71.264,82.439,71.264z"/><g><path fill="#472b29" d="M77.28,77.067h-1.107c-0.276,0-0.5-0.224-0.5-0.5s0.224-0.5,0.5-0.5h1.107c0.276,0,0.5,0.224,0.5,0.5S77.556,77.067,77.28,77.067z"/></g><g><path fill="#fdfcef" d="M35.791,49.658c-0.003,3.157,1.946,6.144,5.297,8.117l0,0c0,1.705-0.497,3.593-1.118,4.795c-0.22,0.426,0.125,0.923,0.602,0.871c3.092-0.34,6.022-1.867,7.579-3.393h1.766c7.802,0,14.126-4.652,14.126-10.39s-6.324-10.39-14.126-10.39S35.791,43.92,35.791,49.658"/><path fill="#472b29" d="M40.504,63.945c-0.361,0-0.701-0.177-0.909-0.479c-0.229-0.334-0.256-0.765-0.07-1.125c0.5-0.969,1.005-2.64,1.058-4.286c-3.371-2.075-5.296-5.121-5.293-8.397c0-6.004,6.561-10.889,14.626-10.889s14.626,4.885,14.626,10.89s-6.561,10.89-14.626,10.89h-1.565c-1.568,1.458-4.508,3.037-7.725,3.39C40.585,63.943,40.544,63.945,40.504,63.945z M49.917,39.769c-7.513,0-13.626,4.437-13.626,9.89v0c-0.003,2.992,1.838,5.793,5.051,7.686c0.152,0.09,0.246,0.253,0.246,0.431c0,1.672-0.461,3.645-1.174,5.025c-0.018,0.035-0.016,0.069,0.005,0.101c0.017,0.023,0.05,0.051,0.097,0.043c3.086-0.338,5.882-1.878,7.285-3.253c0.093-0.092,0.219-0.143,0.35-0.143h1.766c7.513,0,13.626-4.437,13.626-9.89S57.43,39.769,49.917,39.769z M35.791,49.658h0.01H35.791z"/><path fill="#472b29" d="M56.463 45.82h-3.89c-.138 0-.25-.112-.25-.25s.112-.25.25-.25h3.89c.138 0 .25.112.25.25S56.601 45.82 56.463 45.82zM50.845 45.82h-8.211c-.138 0-.25-.112-.25-.25s.112-.25.25-.25h8.211c.138 0 .25.112.25.25S50.983 45.82 50.845 45.82zM58.192 48.413H47.387c-.138 0-.25-.112-.25-.25s.112-.25.25-.25h10.804c.138 0 .25.112.25.25S58.33 48.413 58.192 48.413zM45.659 48.413h-5.187c-.138 0-.25-.112-.25-.25s.112-.25.25-.25h5.187c.138 0 .25.112.25.25S45.797 48.413 45.659 48.413zM53.87 51.006H40.472c-.138 0-.25-.112-.25-.25s.112-.25.25-.25H53.87c.138 0 .25.112.25.25S54.008 51.006 53.87 51.006zM50.349 54.032h-7.715c-.138 0-.25-.112-.25-.25s.112-.25.25-.25h7.715c.138 0 .25.112.25.25S50.487 54.032 50.349 54.032z"/><g><path fill="#ee3e54" d="M57.719 51.561A5.388 5.388 0 1 0 57.719 62.336999999999996A5.388 5.388 0 1 0 57.719 51.561Z"/><path fill="#472b29" d="M57.719,62.837c-3.247,0-5.888-2.642-5.888-5.888s2.642-5.888,5.888-5.888c3.247,0,5.889,2.642,5.889,5.888S60.966,62.837,57.719,62.837z M57.719,52.061c-2.695,0-4.888,2.193-4.888,4.888s2.193,4.888,4.888,4.888c2.696,0,4.889-2.193,4.889-4.888S60.415,52.061,57.719,52.061z"/></g><g><path fill="#fdfcef" d="M59.875 57.428c-.219-.217-.48-.327-.779-.327-.303 0-.566.11-.784.328-.219.218-.329.482-.329.784 0 .299.108.561.324.779.216.218.481.328.789.328.305 0 .568-.111.783-.33.216-.219.324-.48.324-.777C60.203 57.911 60.093 57.648 59.875 57.428zM59.497 58.213c0 .109-.039.201-.119.282-.161.163-.415.157-.57 0-.08-.081-.119-.173-.119-.282 0-.112.04-.206.121-.287.079-.08.173-.12.286-.12.108 0 .201.04.281.12C59.458 58.007 59.497 58.101 59.497 58.213zM57.241 55.688c0-.305-.11-.568-.329-.785-.219-.216-.481-.325-.783-.325-.301 0-.563.109-.78.325-.218.217-.328.481-.328.785 0 .299.108.562.324.78.216.22.48.33.784.33.307 0 .572-.11.788-.33C57.133 56.249 57.241 55.987 57.241 55.688zM56.535 55.688c0 .111-.039.204-.118.285-.159.158-.408.162-.571 0-.08-.081-.119-.174-.119-.285 0-.112.039-.206.118-.286.08-.079.173-.118.284-.118.112 0 .206.039.287.118C56.496 55.483 56.535 55.575 56.535 55.688z"/><path fill="#fdfcef" d="M59.432,54.626c-0.018-0.03-0.051-0.049-0.086-0.049H57.58c-0.056,0-0.1,0.044-0.1,0.1v0.507c0,0.056,0.044,0.1,0.1,0.1h0.838l-2.188,3.889c-0.018,0.03-0.018,0.068,0.001,0.1c0.018,0.03,0.051,0.049,0.086,0.049h0.507c0.036,0,0.069-0.02,0.088-0.051l2.522-4.544C59.45,54.695,59.45,54.657,59.432,54.626z"/></g></g><g><path fill="#472b29" d="M57.937 74.626c-.027 0-.055-.007-.08-.023-.07-.044-.091-.137-.047-.207l1.963-3.106c.044-.07.137-.091.207-.047.07.044.091.137.047.207l-1.963 3.106C58.035 74.602 57.987 74.626 57.937 74.626zM56.937 74.626c-.027 0-.055-.007-.08-.023-.07-.044-.091-.137-.047-.207l1.963-3.106c.044-.07.137-.091.207-.047s.091.137.047.207l-1.963 3.106C57.035 74.602 56.987 74.626 56.937 74.626zM55.937 74.626c-.027 0-.055-.007-.08-.023-.07-.044-.091-.137-.047-.207l1.963-3.106c.044-.07.137-.091.207-.047s.091.137.047.207l-1.963 3.106C56.035 74.602 55.987 74.626 55.937 74.626zM54.937 74.626c-.027 0-.055-.007-.08-.023-.07-.044-.091-.137-.047-.207l1.963-3.106c.044-.07.137-.091.207-.047s.091.137.047.207l-1.963 3.106C55.035 74.602 54.987 74.626 54.937 74.626zM53.937 74.626c-.027 0-.055-.007-.08-.023-.07-.044-.091-.137-.047-.207l1.963-3.106c.044-.07.136-.091.207-.047.07.044.091.137.047.207l-1.963 3.106C54.035 74.602 53.987 74.626 53.937 74.626zM52.937 74.626c-.027 0-.055-.007-.08-.023-.07-.044-.091-.137-.047-.207l1.963-3.106c.045-.07.136-.091.207-.047.07.044.091.137.047.207l-1.963 3.106C53.035 74.602 52.987 74.626 52.937 74.626zM51.937 74.626c-.027 0-.055-.007-.08-.023-.07-.044-.091-.137-.047-.207l1.297-2.053c.045-.07.136-.091.207-.047.07.044.091.137.047.207l-1.297 2.053C52.035 74.602 51.987 74.626 51.937 74.626zM50.937 74.626c-.027 0-.055-.007-.08-.023-.07-.044-.091-.137-.047-.207l.814-1.289c.044-.071.137-.09.207-.047.07.044.091.137.047.207l-.814 1.289C51.035 74.602 50.987 74.626 50.937 74.626z"/></g></svg>