<svg fill="#000000" xmlns="http://www.w3.org/2000/svg"  viewBox="0 0 100 100" width="100px" height="100px"><path fill="none" stroke="#000000" stroke-miterlimit="10" stroke-width="2" d="M50.002,82C38.44,75.497,13,59.019,13,40.003c0-9.951,4.896-17.921,12.476-20.308C26.959,19.229,28.471,19,29.996,19c6.648,0,13.53,4.611,19.095,12.548c0.414,0.595,1.407,0.595,1.819,0c6.844-9.758,15.662-14.353,23.617-11.853C82.104,22.082,87,30.052,87,40.003C87.002,59.023,61.564,75.497,50.002,82z"/><path fill="none" stroke="#000000" stroke-linecap="round" stroke-linejoin="round" stroke-miterlimit="10" d="M81.922,34.5c-0.16-0.691-0.352-1.358-0.575-2 M82.483,40.5c0.011-0.253,0.017-0.506,0.017-0.759c0-1.116-0.073-2.199-0.213-3.241 M80.515,30.5c-1.59-3.226-4.059-5.562-7.131-6.529c-5.751-1.806-12.588,1.777-18.296,9.91c-1.122,1.623-3.026,2.611-5.073,2.613c-0.002,0-0.005,0-0.007,0c-2.046,0-3.95-0.984-5.096-2.634C40.211,27.161,34.651,23.5,29.684,23.5c-1.039,0-2.072,0.159-3.069,0.472C21.078,25.713,17.5,31.903,17.5,39.74c0,15.722,22.391,30.771,32.502,36.76c9.516-5.637,29.915-19.3,32.274-34"/></svg>