<?xml version="1.0" encoding="UTF-8"?>
<svg xmlns="http://www.w3.org/2000/svg" xmlns:xlink="http://www.w3.org/1999/xlink" width="100pt" height="100pt" viewBox="0 0 100 100" version="1.1">
<g id="surface7249513">
<path style=" stroke:none;fill-rule:nonzero;fill:rgb(20%,20%,20%);fill-opacity:1;" d="M 29.996094 18 C 28.371094 18 26.753906 18.242188 25.175781 18.738281 C 17.105469 21.28125 12 29.726562 12 40.003906 C 12 49.957031 18.582031 59.023438 26.484375 66.425781 C 34.382812 73.824219 43.6875 79.597656 49.511719 82.871094 L 50.003906 83.148438 L 50.492188 82.871094 C 56.316406 79.597656 65.621094 73.824219 73.519531 66.425781 C 81.421875 59.027344 88 49.957031 88 40.003906 C 88 29.726562 82.894531 21.28125 74.828125 18.742188 C 66.335938 16.070312 57.082031 21.007812 50.09375 30.976562 L 50.089844 30.976562 L 50.089844 30.980469 C 50.105469 30.957031 49.898438 30.957031 49.914062 30.976562 L 49.910156 30.976562 C 44.226562 22.871094 37.105469 18 29.996094 18 Z M 29.996094 20 C 36.179688 20 42.824219 24.351562 48.269531 32.117188 C 49.113281 33.328125 50.890625 33.332031 51.730469 32.117188 C 58.429688 22.574219 66.808594 18.316406 74.226562 20.648438 C 81.3125 22.878906 86 30.382812 86 40.003906 C 86 49.066406 79.863281 57.746094 72.152344 64.964844 C 64.625 72.015625 55.761719 77.558594 50 80.824219 C 44.242188 77.558594 35.378906 72.015625 27.847656 64.964844 C 20.140625 57.746094 14 49.066406 14 40.003906 C 14 30.382812 18.6875 22.882812 25.773438 20.648438 C 27.164062 20.210938 28.570312 20 29.996094 20 Z M 29.683594 23 C 28.59375 23 27.511719 23.167969 26.464844 23.492188 C 20.664062 25.320312 17 31.75 17 39.738281 C 17 47.839844 22.707031 55.613281 29.613281 62.132812 C 36.523438 68.652344 44.671875 73.925781 49.746094 76.929688 C 49.90625 77.023438 50.097656 77.023438 50.257812 76.929688 C 55.03125 74.101562 62.535156 69.265625 69.160156 63.269531 C 75.78125 57.273438 81.558594 50.128906 82.769531 42.578125 C 82.804688 42.398438 82.742188 42.214844 82.601562 42.097656 C 82.460938 41.980469 82.265625 41.945312 82.097656 42.015625 C 81.925781 42.082031 81.804688 42.238281 81.785156 42.417969 C 80.636719 49.570312 75.03125 56.605469 68.488281 62.527344 C 62.039062 68.363281 54.75 73.082031 50.003906 75.90625 C 44.953125 72.902344 37.027344 67.753906 30.300781 61.40625 C 23.484375 54.972656 18 47.363281 18 39.738281 C 18 32.054688 21.492188 26.105469 26.765625 24.449219 C 27.714844 24.152344 28.695312 24 29.683594 24 C 34.40625 24 39.859375 27.527344 44.503906 34.144531 C 45.742188 35.929688 47.800781 36.992188 50.007812 36.992188 L 50.015625 36.992188 C 52.222656 36.992188 54.28125 35.929688 55.5 34.167969 C 58.316406 30.148438 61.40625 27.277344 64.457031 25.636719 C 67.507812 24 70.503906 23.589844 73.234375 24.445312 C 76.160156 25.367188 78.523438 27.59375 80.066406 30.71875 C 80.140625 30.886719 80.300781 31.003906 80.484375 31.015625 C 80.667969 31.03125 80.84375 30.945312 80.941406 30.789062 C 81.042969 30.636719 81.050781 30.441406 80.964844 30.277344 C 79.324219 26.953125 76.753906 24.507812 73.535156 23.492188 C 70.511719 22.546875 67.214844 23.023438 63.984375 24.757812 C 60.75 26.492188 57.566406 29.480469 54.679688 33.59375 C 54.679688 33.59375 54.675781 33.59375 54.675781 33.59375 C 53.648438 35.078125 51.898438 35.992188 50.015625 35.992188 L 50.007812 35.992188 C 48.121094 35.992188 46.375 35.085938 45.324219 33.574219 C 45.320312 33.574219 45.320312 33.574219 45.320312 33.570312 C 40.5625 26.792969 34.894531 23 29.683594 23 Z M 81.320312 31.992188 C 81.160156 32.003906 81.015625 32.085938 80.929688 32.214844 C 80.839844 32.347656 80.820312 32.515625 80.875 32.664062 C 81.09375 33.289062 81.28125 33.9375 81.433594 34.613281 C 81.46875 34.796875 81.597656 34.945312 81.773438 35 C 81.949219 35.058594 82.144531 35.011719 82.277344 34.882812 C 82.410156 34.757812 82.460938 34.5625 82.410156 34.386719 C 82.246094 33.679688 82.046875 32.996094 81.820312 32.335938 C 81.746094 32.125 81.542969 31.984375 81.320312 31.996094 Z M 82.261719 35.992188 C 82.121094 36 81.988281 36.066406 81.898438 36.175781 C 81.808594 36.285156 81.769531 36.425781 81.792969 36.566406 C 81.929688 37.585938 82 38.644531 82 39.738281 C 82 39.984375 81.996094 40.230469 81.984375 40.480469 C 81.96875 40.660156 82.054688 40.839844 82.207031 40.941406 C 82.359375 41.042969 82.558594 41.050781 82.71875 40.964844 C 82.882812 40.875 82.984375 40.707031 82.984375 40.519531 C 82.992188 40.261719 83 40 83 39.738281 C 83 38.601562 82.925781 37.5 82.785156 36.433594 C 82.75 36.171875 82.523438 35.980469 82.261719 35.992188 Z M 82.261719 35.992188 "/>
</g>
</svg>
