<?xml version="1.0" encoding="UTF-8"?>
<svg xmlns="http://www.w3.org/2000/svg" xmlns:xlink="http://www.w3.org/1999/xlink" width="64pt" height="64pt" viewBox="0 0 64 64" version="1.1">
<defs>
<linearGradient id="linear0" gradientUnits="userSpaceOnUse" x1="86" y1="23.29256" x2="86" y2="148.53544" gradientTransform="matrix(0.372093,0,0,0.372093,0,0)">
<stop offset="0" style="stop-color:rgb(90.196078%,90.196078%,90.196078%);stop-opacity:1;"/>
<stop offset="1" style="stop-color:rgb(50.196078%,50.196078%,50.196078%);stop-opacity:1;"/>
</linearGradient>
<linearGradient id="linear1" gradientUnits="userSpaceOnUse" x1="129" y1="36.28125" x2="129" y2="59.34" gradientTransform="matrix(0.372093,0,0,0.372093,0,0)">
<stop offset="0" style="stop-color:rgb(100%,100%,100%);stop-opacity:1;"/>
<stop offset="1" style="stop-color:rgb(72.156863%,72.156863%,72.156863%);stop-opacity:1;"/>
</linearGradient>
</defs>
<g id="surface7248313">
<path style=" stroke:none;fill-rule:nonzero;fill:url(#linear0);" d="M 32 54 C 25.957031 54 7 41.136719 7 23 C 7 15.832031 12.832031 10 20 10 C 25.398438 10 30.035156 13.308594 32 18 C 33.964844 13.308594 38.601562 10 44 10 C 51.167969 10 57 15.832031 57 23 C 57 41.136719 38.042969 54 32 54 Z M 20 12 C 13.933594 12 9 16.933594 9 23 C 9 40.425781 27.550781 52 32 52 C 36.449219 52 55 40.425781 55 23 C 55 16.933594 50.066406 12 44 12 C 37.933594 12 33 16.933594 33 23 L 31 23 C 31 16.933594 26.066406 12 20 12 Z M 20 12 "/>
<path style=" stroke:none;fill-rule:nonzero;fill:url(#linear1);" d="M 52 22 L 50 22 C 50 18.691406 47.308594 16 44 16 L 44 14 C 48.410156 14 52 17.589844 52 22 Z M 52 22 "/>
</g>
</svg>
