<?xml version="1.0" encoding="UTF-8"?>
<svg xmlns="http://www.w3.org/2000/svg" xmlns:xlink="http://www.w3.org/1999/xlink" width="100pt" height="100pt" viewBox="0 0 100 100" version="1.1">
<g id="surface7691931">
<path style=" stroke:none;fill-rule:nonzero;fill:rgb(100%,100%,100%);fill-opacity:1;" d="M 71.546875 52.363281 L 61.515625 52.363281 C 61.238281 52.363281 61.015625 52.140625 61.015625 51.863281 C 61.015625 51.589844 61.238281 51.363281 61.515625 51.363281 L 71.546875 51.363281 C 71.820312 51.363281 72.046875 51.589844 72.046875 51.863281 C 72.046875 52.140625 71.824219 52.363281 71.546875 52.363281 Z M 74.429688 52.363281 L 72.980469 52.363281 C 72.707031 52.363281 72.480469 52.140625 72.480469 51.863281 C 72.480469 51.589844 72.707031 51.363281 72.980469 51.363281 L 74.429688 51.363281 C 74.703125 51.363281 74.929688 51.589844 74.929688 51.863281 C 74.929688 52.140625 74.703125 52.363281 74.429688 52.363281 Z M 78.480469 52.363281 L 75.9375 52.363281 C 75.660156 52.363281 75.4375 52.140625 75.4375 51.863281 C 75.4375 51.589844 75.660156 51.363281 75.9375 51.363281 L 78.480469 51.363281 C 78.757812 51.363281 78.980469 51.589844 78.980469 51.863281 C 78.980469 52.140625 78.757812 52.363281 78.480469 52.363281 Z M 76.457031 48.636719 L 66.839844 48.636719 C 66.5625 48.636719 66.339844 48.410156 66.339844 48.136719 C 66.339844 47.859375 66.5625 47.636719 66.839844 47.636719 L 76.457031 47.636719 C 76.730469 47.636719 76.957031 47.859375 76.957031 48.136719 C 76.957031 48.410156 76.734375 48.636719 76.457031 48.636719 Z M 65.109375 48.636719 L 64.527344 48.636719 C 64.253906 48.636719 64.027344 48.410156 64.027344 48.136719 C 64.027344 47.859375 64.253906 47.636719 64.527344 47.636719 L 65.109375 47.636719 C 65.382812 47.636719 65.609375 47.859375 65.609375 48.136719 C 65.609375 48.410156 65.386719 48.636719 65.109375 48.636719 Z M 62.730469 48.636719 L 61.273438 48.636719 C 61 48.636719 60.773438 48.410156 60.773438 48.136719 C 60.773438 47.859375 61 47.636719 61.273438 47.636719 L 62.730469 47.636719 C 63.007812 47.636719 63.230469 47.859375 63.230469 48.136719 C 63.230469 48.410156 63.007812 48.636719 62.730469 48.636719 Z M 73.894531 50.5 L 68.863281 50.5 C 68.589844 50.5 68.363281 50.277344 68.363281 50 C 68.363281 49.722656 68.589844 49.5 68.863281 49.5 L 73.894531 49.5 C 74.167969 49.5 74.394531 49.722656 74.394531 50 C 74.394531 50.277344 74.171875 50.5 73.894531 50.5 Z M 73.894531 50.5 "/>
<path style=" stroke:none;fill-rule:nonzero;fill:rgb(100%,100%,100%);fill-opacity:1;" d="M 73.894531 48.636719 L 72.636719 48.636719 C 72.359375 48.636719 72.136719 48.410156 72.136719 48.136719 C 72.136719 47.859375 72.359375 47.636719 72.636719 47.636719 L 73.894531 47.636719 C 74.167969 47.636719 74.394531 47.859375 74.394531 48.136719 C 74.394531 48.410156 74.171875 48.636719 73.894531 48.636719 Z M 67.410156 50.5 L 65.652344 50.5 C 65.375 50.5 65.152344 50.277344 65.152344 50 C 65.152344 49.722656 65.375 49.5 65.652344 49.5 L 67.410156 49.5 C 67.6875 49.5 67.910156 49.722656 67.910156 50 C 67.910156 50.277344 67.6875 50.5 67.410156 50.5 Z M 67.410156 50.5 "/>
<path style=" stroke:none;fill-rule:nonzero;fill:rgb(78.039216%,92.941176%,90.196078%);fill-opacity:1;" d="M 88.660156 56.832031 C 88.960938 56.214844 89.226562 55.566406 89.457031 54.886719 C 92.089844 47.117188 88.109375 37.808594 79.726562 35.5625 C 78.820312 24.179688 70.820312 16.371094 61.785156 15.035156 C 51.441406 13.511719 41.96875 20.082031 38.816406 30.523438 C 35.019531 29.175781 31.316406 29.339844 27.828125 31.378906 C 26.246094 32.109375 24.796875 33.191406 23.496094 34.613281 C 21.589844 36.699219 20.351562 39.332031 19.847656 42.105469 C 19.097656 42.226562 18.363281 42.34375 17.671875 42.589844 C 13.628906 44.039062 11.082031 47.023438 10.382812 51.515625 C 9.945312 54.3125 10.824219 57.101562 11.316406 58.226562 C 13.25 62.683594 17.738281 65.207031 22.296875 64.539062 C 22.523438 64.507812 22.851562 64.609375 23.046875 64.773438 C 23.289062 71.894531 26.746094 78.191406 31.933594 81.785156 C 40.253906 87.558594 50.960938 85.78125 57.714844 77.867188 C 60.605469 80.824219 64.050781 82.265625 68.097656 81.742188 C 72.121094 81.222656 75.242188 79.003906 77.523438 75.394531 C 78.574219 75.675781 79.574219 76.085938 80.605469 76.195312 C 84.648438 76.640625 87.929688 75.03125 90.339844 71.398438 C 91.261719 70.007812 92.132812 68.203125 92.132812 65.042969 C 92.132812 61.789062 90.839844 58.820312 88.660156 56.832031 Z M 88.660156 56.832031 "/>
<path style=" stroke:none;fill-rule:nonzero;fill:rgb(100%,100%,100%);fill-opacity:1;" d="M 18.328125 48.867188 L 8.296875 48.867188 C 8.019531 48.867188 7.796875 48.640625 7.796875 48.367188 C 7.796875 48.089844 8.019531 47.867188 8.296875 47.867188 L 18.328125 47.867188 C 18.601562 47.867188 18.828125 48.089844 18.828125 48.367188 C 18.828125 48.640625 18.601562 48.867188 18.328125 48.867188 Z M 21.207031 48.867188 L 19.761719 48.867188 C 19.484375 48.867188 19.261719 48.640625 19.261719 48.367188 C 19.261719 48.089844 19.484375 47.867188 19.761719 47.867188 L 21.207031 47.867188 C 21.484375 47.867188 21.707031 48.089844 21.707031 48.367188 C 21.707031 48.640625 21.484375 48.867188 21.207031 48.867188 Z M 25.261719 48.867188 L 22.714844 48.867188 C 22.441406 48.867188 22.214844 48.640625 22.214844 48.367188 C 22.214844 48.089844 22.441406 47.867188 22.714844 47.867188 L 25.261719 47.867188 C 25.539062 47.867188 25.761719 48.089844 25.761719 48.367188 C 25.761719 48.640625 25.539062 48.867188 25.261719 48.867188 Z M 25.261719 50.730469 L 15.644531 50.730469 C 15.371094 50.730469 15.144531 50.507812 15.144531 50.230469 C 15.144531 49.953125 15.371094 49.730469 15.644531 49.730469 L 25.261719 49.730469 C 25.539062 49.730469 25.761719 49.953125 25.761719 50.230469 C 25.761719 50.507812 25.539062 50.730469 25.261719 50.730469 Z M 13.914062 50.730469 L 13.335938 50.730469 C 13.058594 50.730469 12.835938 50.507812 12.835938 50.230469 C 12.835938 49.953125 13.058594 49.730469 13.335938 49.730469 L 13.914062 49.730469 C 14.191406 49.730469 14.414062 49.953125 14.414062 50.230469 C 14.414062 50.507812 14.191406 50.730469 13.914062 50.730469 Z M 11.539062 50.730469 L 10.082031 50.730469 C 9.804688 50.730469 9.582031 50.507812 9.582031 50.230469 C 9.582031 49.953125 9.804688 49.730469 10.082031 49.730469 L 11.539062 49.730469 C 11.8125 49.730469 12.039062 49.953125 12.039062 50.230469 C 12.039062 50.507812 11.8125 50.730469 11.539062 50.730469 Z M 20.675781 47.003906 L 15.648438 47.003906 C 15.371094 47.003906 15.148438 46.777344 15.148438 46.503906 C 15.148438 46.226562 15.371094 46.003906 15.648438 46.003906 L 20.675781 46.003906 C 20.949219 46.003906 21.175781 46.226562 21.175781 46.503906 C 21.175781 46.777344 20.949219 47.003906 20.675781 47.003906 Z M 20.675781 45.136719 L 19.417969 45.136719 C 19.140625 45.136719 18.917969 44.914062 18.917969 44.636719 C 18.917969 44.359375 19.140625 44.136719 19.417969 44.136719 L 20.675781 44.136719 C 20.949219 44.136719 21.175781 44.359375 21.175781 44.636719 C 21.175781 44.914062 20.949219 45.136719 20.675781 45.136719 Z M 17.40625 52.597656 L 15.644531 52.597656 C 15.371094 52.597656 15.144531 52.371094 15.144531 52.097656 C 15.144531 51.820312 15.371094 51.597656 15.644531 51.597656 L 17.40625 51.597656 C 17.679688 51.597656 17.90625 51.820312 17.90625 52.097656 C 17.90625 52.371094 17.679688 52.597656 17.40625 52.597656 Z M 17.40625 52.597656 "/>
<path style=" stroke:none;fill-rule:nonzero;fill:rgb(99.215686%,98.823529%,93.72549%);fill-opacity:1;" d="M 30.765625 77.203125 C 30.765625 77.203125 42.457031 77.203125 42.527344 77.203125 C 45.226562 77.203125 47.414062 75.015625 47.414062 72.3125 C 47.414062 69.960938 45.75 67.992188 43.53125 67.53125 C 43.558594 67.324219 43.574219 67.113281 43.574219 66.902344 C 43.574219 64.105469 41.308594 61.839844 38.511719 61.839844 C 36.859375 61.839844 35.398438 62.632812 34.472656 63.855469 C 34.238281 60.742188 31.457031 58.34375 28.203125 58.738281 C 25.824219 59.03125 23.859375 60.871094 23.421875 63.226562 C 23.28125 63.980469 23.292969 64.714844 23.433594 65.402344 C 22.796875 64.714844 21.886719 64.285156 20.878906 64.285156 C 19.027344 64.285156 17.515625 65.726562 17.398438 67.546875 C 16.558594 67.359375 15.644531 67.371094 14.679688 67.734375 C 12.839844 68.425781 11.53125 70.15625 11.453125 72.121094 C 11.34375 74.910156 13.574219 77.203125 16.339844 77.203125 C 16.546875 77.203125 17.285156 77.203125 17.457031 77.203125 L 27.605469 77.203125 "/>
<path style=" stroke:none;fill-rule:nonzero;fill:rgb(27.843137%,16.862745%,16.078431%);fill-opacity:1;" d="M 42.527344 77.703125 L 30.765625 77.703125 C 30.488281 77.703125 30.265625 77.480469 30.265625 77.203125 C 30.265625 76.925781 30.488281 76.703125 30.765625 76.703125 L 42.527344 76.703125 C 44.945312 76.703125 46.914062 74.734375 46.914062 72.3125 C 46.914062 70.246094 45.449219 68.441406 43.429688 68.019531 C 43.175781 67.964844 43.003906 67.726562 43.035156 67.46875 C 43.058594 67.28125 43.074219 67.09375 43.074219 66.902344 C 43.074219 64.386719 41.027344 62.339844 38.511719 62.339844 C 37.074219 62.339844 35.746094 63.003906 34.871094 64.15625 C 34.746094 64.324219 34.535156 64.394531 34.332031 64.335938 C 34.132812 64.277344 33.992188 64.101562 33.976562 63.894531 C 33.871094 62.515625 33.195312 61.222656 32.125 60.34375 C 31.042969 59.457031 29.675781 59.0625 28.265625 59.234375 C 26.097656 59.5 24.308594 61.179688 23.910156 63.316406 C 23.785156 63.984375 23.792969 64.652344 23.925781 65.304688 C 23.96875 65.523438 23.863281 65.746094 23.664062 65.847656 C 23.460938 65.949219 23.222656 65.90625 23.066406 65.742188 C 22.492188 65.125 21.714844 64.785156 20.878906 64.785156 C 19.308594 64.785156 18 66.011719 17.898438 67.578125 C 17.886719 67.722656 17.816406 67.855469 17.699219 67.945312 C 17.582031 68.03125 17.429688 68.0625 17.289062 68.03125 C 16.449219 67.847656 15.652344 67.902344 14.855469 68.199219 C 13.1875 68.824219 12.019531 70.40625 11.953125 72.136719 C 11.90625 73.34375 12.339844 74.488281 13.175781 75.355469 C 14.011719 76.222656 15.136719 76.703125 16.339844 76.703125 L 27.609375 76.703125 C 27.886719 76.703125 28.109375 76.925781 28.109375 77.203125 C 28.109375 77.476562 27.886719 77.703125 27.609375 77.703125 L 16.339844 77.703125 C 14.859375 77.703125 13.480469 77.113281 12.457031 76.046875 C 11.429688 74.980469 10.898438 73.578125 10.957031 72.097656 C 11.039062 69.972656 12.464844 68.027344 14.507812 67.261719 C 15.308594 66.960938 16.132812 66.863281 16.976562 66.964844 C 17.351562 65.140625 18.972656 63.78125 20.878906 63.78125 C 21.5625 63.78125 22.234375 63.960938 22.824219 64.289062 C 22.824219 63.90625 22.859375 63.519531 22.929688 63.132812 C 23.40625 60.570312 25.550781 58.558594 28.144531 58.242188 C 29.824219 58.03125 31.464844 58.507812 32.761719 59.570312 C 33.765625 60.390625 34.476562 61.519531 34.800781 62.761719 C 35.8125 61.847656 37.117188 61.335938 38.511719 61.335938 C 41.578125 61.335938 44.074219 63.832031 44.074219 66.898438 C 44.074219 66.984375 44.074219 67.066406 44.070312 67.148438 C 46.324219 67.820312 47.917969 69.925781 47.917969 72.3125 C 47.914062 75.285156 45.496094 77.703125 42.527344 77.703125 Z M 42.527344 77.703125 "/>
<path style=" stroke:none;fill-rule:nonzero;fill:rgb(99.215686%,98.823529%,93.72549%);fill-opacity:1;" d="M 27.933594 66.433594 C 26.125 66.316406 24.566406 67.5625 24.457031 69.222656 C 24.441406 69.429688 24.449219 69.632812 24.480469 69.828125 C 24.132812 69.433594 23.617188 69.167969 23.023438 69.128906 C 21.9375 69.058594 21 69.773438 20.863281 70.75 C 20.667969 70.695312 20.460938 70.660156 20.25 70.644531 C 18.667969 70.539062 17.304688 71.632812 17.207031 73.085938 "/>
<path style=" stroke:none;fill-rule:nonzero;fill:rgb(27.843137%,16.862745%,16.078431%);fill-opacity:1;" d="M 17.207031 73.335938 C 17.203125 73.335938 17.195312 73.335938 17.191406 73.335938 C 17.054688 73.328125 16.949219 73.207031 16.957031 73.070312 C 17.0625 71.484375 18.542969 70.285156 20.265625 70.394531 C 20.402344 70.40625 20.535156 70.421875 20.675781 70.449219 C 20.949219 69.480469 21.929688 68.808594 23.039062 68.882812 C 23.464844 68.910156 23.863281 69.042969 24.203125 69.261719 C 24.203125 69.242188 24.203125 69.226562 24.207031 69.207031 C 24.328125 67.414062 26 66.066406 27.949219 66.1875 C 28.085938 66.195312 28.191406 66.3125 28.183594 66.453125 C 28.171875 66.589844 28.054688 66.699219 27.914062 66.683594 C 26.265625 66.574219 24.808594 67.722656 24.707031 69.242188 C 24.695312 69.425781 24.703125 69.613281 24.730469 69.792969 C 24.746094 69.902344 24.6875 70.011719 24.589844 70.058594 C 24.488281 70.105469 24.367188 70.082031 24.296875 69.996094 C 23.976562 69.636719 23.507812 69.414062 23.007812 69.378906 C 22.070312 69.316406 21.230469 69.933594 21.113281 70.785156 C 21.101562 70.855469 21.0625 70.917969 21.003906 70.960938 C 20.941406 71 20.871094 71.011719 20.800781 70.992188 C 20.609375 70.941406 20.421875 70.90625 20.230469 70.894531 C 18.792969 70.789062 17.542969 71.792969 17.457031 73.105469 C 17.449219 73.234375 17.339844 73.335938 17.207031 73.335938 Z M 17.207031 73.335938 "/>
<path style=" stroke:none;fill-rule:nonzero;fill:rgb(99.215686%,98.823529%,93.72549%);fill-opacity:1;" d="M 44.507812 68.101562 C 42.808594 67.300781 40.84375 67.867188 40.117188 69.371094 C 40.027344 69.554688 39.960938 69.75 39.914062 69.945312 "/>
<path style=" stroke:none;fill-rule:nonzero;fill:rgb(27.843137%,16.862745%,16.078431%);fill-opacity:1;" d="M 39.914062 70.191406 C 39.898438 70.191406 39.878906 70.191406 39.859375 70.1875 C 39.726562 70.15625 39.640625 70.019531 39.671875 69.886719 C 39.722656 69.671875 39.796875 69.460938 39.890625 69.261719 C 40.675781 67.640625 42.792969 67.019531 44.613281 67.878906 C 44.738281 67.9375 44.789062 68.085938 44.730469 68.210938 C 44.671875 68.335938 44.523438 68.386719 44.398438 68.332031 C 42.824219 67.589844 41.007812 68.105469 40.34375 69.480469 C 40.261719 69.644531 40.199219 69.820312 40.160156 70 C 40.132812 70.113281 40.03125 70.191406 39.914062 70.191406 Z M 39.914062 70.191406 "/>
<path style=" stroke:none;fill-rule:nonzero;fill:rgb(93.72549%,60%,13.333333%);fill-opacity:1;" d="M 63.78125 74.773438 L 36.132812 74.773438 C 30.632812 74.773438 26.132812 70.273438 26.132812 64.773438 L 26.132812 37.125 C 26.132812 31.625 30.632812 27.125 36.132812 27.125 L 63.78125 27.125 C 69.28125 27.125 73.78125 31.625 73.78125 37.125 L 73.78125 64.773438 C 73.78125 70.273438 69.28125 74.773438 63.78125 74.773438 Z M 63.78125 74.773438 "/>
<path style=" stroke:none;fill-rule:nonzero;fill:rgb(27.843137%,16.862745%,16.078431%);fill-opacity:1;" d="M 63.78125 75.472656 L 36.132812 75.472656 C 30.234375 75.472656 25.433594 70.675781 25.433594 64.773438 L 25.433594 37.125 C 25.433594 31.226562 30.234375 26.425781 36.132812 26.425781 L 63.78125 26.425781 C 69.683594 26.425781 74.484375 31.226562 74.484375 37.125 L 74.484375 64.773438 C 74.484375 70.675781 69.683594 75.472656 63.78125 75.472656 Z M 36.132812 27.824219 C 31.007812 27.824219 26.835938 31.996094 26.835938 37.125 L 26.835938 64.773438 C 26.835938 69.902344 31.007812 74.074219 36.132812 74.074219 L 63.78125 74.074219 C 68.910156 74.074219 73.082031 69.902344 73.082031 64.773438 L 73.082031 37.125 C 73.082031 31.996094 68.910156 27.824219 63.78125 27.824219 Z M 36.132812 27.824219 "/>
<path style=" stroke:none;fill-rule:nonzero;fill:rgb(27.843137%,16.862745%,16.078431%);fill-opacity:1;" d="M 62.5625 71.746094 L 37.355469 71.746094 C 32.839844 71.746094 29.164062 68.070312 29.164062 63.550781 L 29.164062 38.347656 C 29.164062 33.828125 32.839844 30.152344 37.355469 30.152344 L 62.816406 30.152344 C 63.023438 30.152344 63.191406 30.320312 63.191406 30.527344 C 63.191406 30.734375 63.023438 30.902344 62.816406 30.902344 L 37.355469 30.902344 C 33.253906 30.902344 29.914062 34.242188 29.914062 38.347656 L 29.914062 63.550781 C 29.914062 67.65625 33.253906 70.996094 37.355469 70.996094 L 62.5625 70.996094 C 66.664062 70.996094 70.003906 67.65625 70.003906 63.550781 L 70.003906 49.4375 C 70.003906 49.230469 70.171875 49.0625 70.378906 49.0625 C 70.585938 49.0625 70.753906 49.230469 70.753906 49.4375 L 70.753906 63.550781 C 70.753906 68.070312 67.078125 71.746094 62.5625 71.746094 Z M 70.378906 47.542969 C 70.171875 47.542969 70.003906 47.375 70.003906 47.167969 L 70.003906 44.144531 C 70.003906 43.9375 70.171875 43.769531 70.378906 43.769531 C 70.585938 43.769531 70.753906 43.9375 70.753906 44.144531 L 70.753906 47.167969 C 70.753906 47.375 70.585938 47.542969 70.378906 47.542969 Z M 70.378906 43.003906 C 70.171875 43.003906 70.003906 42.835938 70.003906 42.628906 L 70.003906 41.117188 C 70.003906 40.910156 70.171875 40.742188 70.378906 40.742188 C 70.585938 40.742188 70.753906 40.910156 70.753906 41.117188 L 70.753906 42.628906 C 70.753906 42.835938 70.585938 43.003906 70.378906 43.003906 Z M 70.378906 43.003906 "/>
<path style=" stroke:none;fill-rule:nonzero;fill:rgb(99.215686%,98.823529%,93.72549%);fill-opacity:1;" d="M 80.605469 76.566406 C 82.488281 76.566406 84.121094 76.566406 84.144531 76.566406 C 86.257812 76.566406 87.96875 74.894531 87.96875 72.828125 C 87.96875 71.027344 86.664062 69.523438 84.933594 69.167969 C 84.953125 69.011719 84.964844 68.851562 84.964844 68.6875 C 84.964844 66.550781 83.195312 64.816406 81.007812 64.816406 C 79.71875 64.816406 78.574219 65.421875 77.855469 66.359375 C 77.667969 63.976562 75.496094 62.140625 72.953125 62.445312 C 71.09375 62.667969 69.558594 64.074219 69.214844 65.875 C 69.105469 66.453125 69.117188 67.015625 69.226562 67.539062 C 68.726562 67.015625 68.019531 66.683594 67.226562 66.683594 C 65.78125 66.683594 64.601562 67.785156 64.507812 69.179688 C 63.851562 69.035156 63.136719 69.046875 62.386719 69.320312 C 60.945312 69.851562 59.921875 71.175781 59.863281 72.679688 C 59.777344 74.8125 61.519531 76.566406 63.679688 76.566406 C 63.84375 76.566406 64.421875 76.566406 64.554688 76.566406 L 72.488281 76.566406 M 74.128906 76.566406 L 74.488281 76.566406 "/>
<path style=" stroke:none;fill-rule:nonzero;fill:rgb(27.843137%,16.862745%,16.078431%);fill-opacity:1;" d="M 84.144531 77.066406 L 80.605469 77.066406 C 80.328125 77.066406 80.105469 76.84375 80.105469 76.566406 C 80.105469 76.289062 80.328125 76.066406 80.605469 76.066406 L 84.144531 76.066406 C 85.976562 76.066406 87.464844 74.613281 87.464844 72.828125 C 87.464844 71.304688 86.359375 69.972656 84.832031 69.65625 C 84.574219 69.605469 84.402344 69.363281 84.433594 69.105469 C 84.453125 68.96875 84.464844 68.828125 84.464844 68.6875 C 84.464844 66.828125 82.914062 65.316406 81.007812 65.316406 C 79.914062 65.316406 78.910156 65.804688 78.25 66.664062 C 78.121094 66.828125 77.90625 66.894531 77.710938 66.835938 C 77.511719 66.777344 77.371094 66.601562 77.355469 66.394531 C 77.277344 65.378906 76.789062 64.453125 75.984375 63.792969 C 75.15625 63.113281 74.101562 62.8125 73.011719 62.941406 C 71.367188 63.136719 70.007812 64.382812 69.707031 65.96875 C 69.613281 66.464844 69.617188 66.957031 69.714844 67.4375 C 69.761719 67.65625 69.65625 67.878906 69.457031 67.984375 C 69.261719 68.085938 69.019531 68.046875 68.863281 67.882812 C 68.433594 67.433594 67.855469 67.183594 67.226562 67.183594 C 66.058594 67.183594 65.082031 68.074219 65.007812 69.210938 C 64.996094 69.355469 64.925781 69.488281 64.808594 69.578125 C 64.691406 69.664062 64.546875 69.695312 64.402344 69.664062 C 63.765625 69.527344 63.160156 69.566406 62.558594 69.789062 C 61.296875 70.253906 60.414062 71.421875 60.363281 72.695312 C 60.328125 73.570312 60.644531 74.402344 61.257812 75.039062 C 61.890625 75.699219 62.753906 76.066406 63.679688 76.066406 L 72.488281 76.066406 C 72.765625 76.066406 72.988281 76.289062 72.988281 76.566406 C 72.988281 76.839844 72.765625 77.066406 72.488281 77.066406 L 63.679688 77.066406 C 62.496094 77.066406 61.347656 76.578125 60.535156 75.734375 C 59.734375 74.898438 59.316406 73.804688 59.363281 72.65625 C 59.429688 70.980469 60.574219 69.453125 62.210938 68.851562 C 62.824219 68.628906 63.453125 68.546875 64.09375 68.605469 C 64.4375 67.210938 65.722656 66.183594 67.226562 66.183594 C 67.722656 66.183594 68.203125 66.296875 68.640625 66.503906 C 68.652344 66.265625 68.679688 66.023438 68.722656 65.78125 C 69.105469 63.769531 70.820312 62.195312 72.894531 61.945312 C 74.257812 61.785156 75.578125 62.164062 76.621094 63.019531 C 77.367188 63.632812 77.898438 64.425781 78.167969 65.320312 C 78.957031 64.671875 79.953125 64.3125 81.007812 64.3125 C 83.46875 64.3125 85.464844 66.273438 85.464844 68.6875 C 85.464844 68.71875 85.464844 68.753906 85.464844 68.789062 C 87.230469 69.34375 88.46875 70.976562 88.46875 72.828125 C 88.46875 75.164062 86.527344 77.066406 84.144531 77.066406 Z M 74.488281 77.066406 L 74.128906 77.066406 C 73.851562 77.066406 73.628906 76.84375 73.628906 76.566406 C 73.628906 76.289062 73.851562 76.066406 74.128906 76.066406 L 74.488281 76.066406 C 74.765625 76.066406 74.988281 76.289062 74.988281 76.566406 C 74.988281 76.84375 74.765625 77.066406 74.488281 77.066406 Z M 74.488281 77.066406 "/>
<path style=" stroke:none;fill-rule:nonzero;fill:rgb(27.843137%,16.862745%,16.078431%);fill-opacity:1;" d="M 82.4375 71.265625 C 82.421875 71.265625 82.402344 71.261719 82.382812 71.257812 C 82.25 71.226562 82.164062 71.09375 82.195312 70.960938 C 82.230469 70.792969 82.289062 70.632812 82.363281 70.480469 C 82.96875 69.257812 84.636719 68.804688 86.085938 69.472656 C 86.210938 69.53125 86.265625 69.679688 86.207031 69.804688 C 86.148438 69.929688 86 69.984375 85.875 69.925781 C 84.675781 69.371094 83.296875 69.71875 82.8125 70.699219 C 82.753906 70.816406 82.710938 70.941406 82.683594 71.066406 C 82.65625 71.183594 82.554688 71.265625 82.4375 71.265625 Z M 82.4375 71.265625 "/>
<path style=" stroke:none;fill-rule:nonzero;fill:rgb(27.843137%,16.862745%,16.078431%);fill-opacity:1;" d="M 77.28125 77.066406 L 76.171875 77.066406 C 75.898438 77.066406 75.671875 76.84375 75.671875 76.566406 C 75.671875 76.289062 75.898438 76.066406 76.171875 76.066406 L 77.28125 76.066406 C 77.554688 76.066406 77.78125 76.289062 77.78125 76.566406 C 77.78125 76.84375 77.554688 77.066406 77.28125 77.066406 Z M 77.28125 77.066406 "/>
<path style=" stroke:none;fill-rule:nonzero;fill:rgb(99.215686%,98.823529%,93.72549%);fill-opacity:1;" d="M 35.789062 49.65625 C 35.789062 52.816406 37.738281 55.800781 41.089844 57.773438 C 41.089844 59.480469 40.589844 61.367188 39.96875 62.570312 C 39.75 62.996094 40.09375 63.492188 40.570312 63.441406 C 43.664062 63.101562 46.59375 61.574219 48.152344 60.046875 L 49.917969 60.046875 C 57.71875 60.046875 64.042969 55.394531 64.042969 49.65625 C 64.042969 43.921875 57.71875 39.269531 49.917969 39.269531 C 42.113281 39.269531 35.789062 43.921875 35.789062 49.65625 "/>
<path style=" stroke:none;fill-rule:nonzero;fill:rgb(27.843137%,16.862745%,16.078431%);fill-opacity:1;" d="M 40.503906 63.945312 C 40.144531 63.945312 39.804688 63.769531 39.59375 63.464844 C 39.367188 63.132812 39.339844 62.699219 39.523438 62.339844 C 40.023438 61.371094 40.53125 59.699219 40.582031 58.054688 C 37.210938 55.980469 35.285156 52.933594 35.289062 49.65625 C 35.289062 43.652344 41.851562 38.769531 49.914062 38.769531 C 57.980469 38.769531 64.542969 43.652344 64.542969 49.660156 C 64.542969 55.664062 57.980469 60.550781 49.914062 60.550781 L 48.351562 60.550781 C 46.78125 62.007812 43.84375 63.585938 40.625 63.9375 C 40.585938 63.941406 40.542969 63.945312 40.503906 63.945312 Z M 49.917969 39.769531 C 42.402344 39.769531 36.289062 44.207031 36.289062 49.660156 C 36.289062 52.652344 38.128906 55.453125 41.34375 57.34375 C 41.492188 57.433594 41.589844 57.597656 41.589844 57.777344 C 41.589844 59.449219 41.128906 61.421875 40.414062 62.800781 C 40.394531 62.835938 40.398438 62.871094 40.417969 62.902344 C 40.4375 62.925781 40.46875 62.953125 40.515625 62.945312 C 43.601562 62.605469 46.398438 61.066406 47.800781 59.691406 C 47.894531 59.601562 48.019531 59.550781 48.152344 59.550781 L 49.917969 59.550781 C 57.429688 59.550781 63.542969 55.113281 63.542969 49.660156 C 63.542969 44.207031 57.429688 39.769531 49.917969 39.769531 Z M 35.789062 49.65625 L 35.800781 49.65625 Z M 35.789062 49.65625 "/>
<path style=" stroke:none;fill-rule:nonzero;fill:rgb(27.843137%,16.862745%,16.078431%);fill-opacity:1;" d="M 56.464844 45.820312 L 52.574219 45.820312 C 52.433594 45.820312 52.324219 45.707031 52.324219 45.570312 C 52.324219 45.433594 52.433594 45.320312 52.574219 45.320312 L 56.464844 45.320312 C 56.601562 45.320312 56.714844 45.433594 56.714844 45.570312 C 56.714844 45.707031 56.601562 45.820312 56.464844 45.820312 Z M 50.84375 45.820312 L 42.632812 45.820312 C 42.496094 45.820312 42.382812 45.707031 42.382812 45.570312 C 42.382812 45.433594 42.496094 45.320312 42.632812 45.320312 L 50.84375 45.320312 C 50.984375 45.320312 51.09375 45.433594 51.09375 45.570312 C 51.09375 45.707031 50.984375 45.820312 50.84375 45.820312 Z M 58.191406 48.414062 L 47.386719 48.414062 C 47.25 48.414062 47.136719 48.300781 47.136719 48.164062 C 47.136719 48.023438 47.25 47.914062 47.386719 47.914062 L 58.191406 47.914062 C 58.328125 47.914062 58.441406 48.023438 58.441406 48.164062 C 58.441406 48.300781 58.328125 48.414062 58.191406 48.414062 Z M 45.660156 48.414062 L 40.472656 48.414062 C 40.335938 48.414062 40.222656 48.300781 40.222656 48.164062 C 40.222656 48.023438 40.335938 47.914062 40.472656 47.914062 L 45.660156 47.914062 C 45.796875 47.914062 45.910156 48.023438 45.910156 48.164062 C 45.910156 48.300781 45.796875 48.414062 45.660156 48.414062 Z M 53.871094 51.007812 L 40.472656 51.007812 C 40.335938 51.007812 40.222656 50.894531 40.222656 50.757812 C 40.222656 50.617188 40.335938 50.507812 40.472656 50.507812 L 53.871094 50.507812 C 54.007812 50.507812 54.121094 50.617188 54.121094 50.757812 C 54.121094 50.894531 54.007812 51.007812 53.871094 51.007812 Z M 50.347656 54.03125 L 42.632812 54.03125 C 42.496094 54.03125 42.382812 53.921875 42.382812 53.78125 C 42.382812 53.644531 42.496094 53.53125 42.632812 53.53125 L 50.347656 53.53125 C 50.488281 53.53125 50.597656 53.644531 50.597656 53.78125 C 50.597656 53.921875 50.488281 54.03125 50.347656 54.03125 Z M 50.347656 54.03125 "/>
<path style=" stroke:none;fill-rule:nonzero;fill:rgb(93.333333%,24.313725%,32.941176%);fill-opacity:1;" d="M 57.71875 51.5625 C 54.742188 51.5625 52.332031 53.972656 52.332031 56.949219 C 52.332031 59.925781 54.742188 62.335938 57.71875 62.335938 C 60.695312 62.335938 63.105469 59.925781 63.105469 56.949219 C 63.105469 53.972656 60.695312 51.5625 57.71875 51.5625 Z M 57.71875 51.5625 "/>
<path style=" stroke:none;fill-rule:nonzero;fill:rgb(27.843137%,16.862745%,16.078431%);fill-opacity:1;" d="M 57.71875 62.835938 C 54.472656 62.835938 51.832031 60.195312 51.832031 56.949219 C 51.832031 53.703125 54.472656 51.0625 57.71875 51.0625 C 60.964844 51.0625 63.609375 53.703125 63.609375 56.949219 C 63.609375 60.195312 60.964844 62.835938 57.71875 62.835938 Z M 57.71875 52.0625 C 55.023438 52.0625 52.832031 54.253906 52.832031 56.949219 C 52.832031 59.644531 55.023438 61.835938 57.71875 61.835938 C 60.414062 61.835938 62.609375 59.644531 62.609375 56.949219 C 62.609375 54.253906 60.414062 52.0625 57.71875 52.0625 Z M 57.71875 52.0625 "/>
<path style=" stroke:none;fill-rule:nonzero;fill:rgb(99.215686%,98.823529%,93.72549%);fill-opacity:1;" d="M 59.875 57.429688 C 59.65625 57.210938 59.394531 57.101562 59.097656 57.101562 C 58.792969 57.101562 58.53125 57.210938 58.3125 57.429688 C 58.09375 57.648438 57.984375 57.910156 57.984375 58.214844 C 57.984375 58.511719 58.089844 58.773438 58.308594 58.992188 C 58.523438 59.210938 58.789062 59.320312 59.097656 59.320312 C 59.402344 59.320312 59.664062 59.210938 59.878906 58.988281 C 60.09375 58.769531 60.203125 58.511719 60.203125 58.214844 C 60.203125 57.910156 60.09375 57.648438 59.875 57.429688 Z M 59.496094 58.214844 C 59.496094 58.320312 59.457031 58.414062 59.378906 58.496094 C 59.21875 58.65625 58.964844 58.652344 58.808594 58.496094 C 58.726562 58.414062 58.6875 58.320312 58.6875 58.214844 C 58.6875 58.101562 58.730469 58.007812 58.808594 57.925781 C 58.890625 57.847656 58.984375 57.804688 59.097656 57.804688 C 59.203125 57.804688 59.296875 57.847656 59.378906 57.925781 C 59.457031 58.007812 59.496094 58.101562 59.496094 58.214844 Z M 57.242188 55.6875 C 57.242188 55.382812 57.132812 55.121094 56.910156 54.902344 C 56.691406 54.6875 56.429688 54.578125 56.128906 54.578125 C 55.828125 54.578125 55.566406 54.6875 55.347656 54.902344 C 55.132812 55.121094 55.019531 55.382812 55.019531 55.6875 C 55.019531 55.988281 55.128906 56.25 55.34375 56.46875 C 55.5625 56.6875 55.824219 56.796875 56.128906 56.796875 C 56.4375 56.796875 56.699219 56.6875 56.917969 56.46875 C 57.132812 56.25 57.242188 55.988281 57.242188 55.6875 Z M 56.535156 55.6875 C 56.535156 55.800781 56.496094 55.890625 56.417969 55.972656 C 56.257812 56.132812 56.007812 56.136719 55.847656 55.972656 C 55.765625 55.890625 55.726562 55.800781 55.726562 55.6875 C 55.726562 55.574219 55.765625 55.480469 55.84375 55.402344 C 55.925781 55.324219 56.019531 55.285156 56.128906 55.285156 C 56.242188 55.285156 56.335938 55.324219 56.414062 55.402344 C 56.496094 55.484375 56.535156 55.574219 56.535156 55.6875 Z M 56.535156 55.6875 "/>
<path style=" stroke:none;fill-rule:nonzero;fill:rgb(99.215686%,98.823529%,93.72549%);fill-opacity:1;" d="M 59.433594 54.625 C 59.414062 54.597656 59.382812 54.578125 59.347656 54.578125 L 57.578125 54.578125 C 57.523438 54.578125 57.480469 54.621094 57.480469 54.675781 L 57.480469 55.183594 C 57.480469 55.238281 57.523438 55.285156 57.578125 55.285156 L 58.417969 55.285156 L 56.230469 59.171875 C 56.210938 59.203125 56.210938 59.242188 56.230469 59.273438 C 56.25 59.304688 56.28125 59.320312 56.316406 59.320312 L 56.824219 59.320312 C 56.859375 59.320312 56.894531 59.300781 56.910156 59.269531 L 59.433594 54.726562 C 59.449219 54.695312 59.449219 54.65625 59.433594 54.625 Z M 59.433594 54.625 "/>
<path style=" stroke:none;fill-rule:nonzero;fill:rgb(27.843137%,16.862745%,16.078431%);fill-opacity:1;" d="M 57.9375 74.625 C 57.910156 74.625 57.882812 74.617188 57.855469 74.601562 C 57.785156 74.558594 57.765625 74.464844 57.808594 74.394531 L 59.773438 71.289062 C 59.816406 71.21875 59.910156 71.199219 59.980469 71.242188 C 60.050781 71.285156 60.070312 71.378906 60.027344 71.449219 L 58.0625 74.554688 C 58.035156 74.601562 57.988281 74.625 57.9375 74.625 Z M 56.9375 74.625 C 56.910156 74.625 56.882812 74.617188 56.855469 74.601562 C 56.785156 74.558594 56.765625 74.464844 56.808594 74.394531 L 58.773438 71.289062 C 58.816406 71.21875 58.910156 71.199219 58.980469 71.242188 C 59.050781 71.285156 59.070312 71.378906 59.027344 71.449219 L 57.0625 74.554688 C 57.035156 74.601562 56.988281 74.625 56.9375 74.625 Z M 55.9375 74.625 C 55.910156 74.625 55.882812 74.617188 55.855469 74.601562 C 55.785156 74.558594 55.765625 74.464844 55.808594 74.394531 L 57.773438 71.289062 C 57.816406 71.21875 57.910156 71.199219 57.980469 71.242188 C 58.050781 71.285156 58.070312 71.378906 58.027344 71.449219 L 56.0625 74.554688 C 56.035156 74.601562 55.988281 74.625 55.9375 74.625 Z M 54.9375 74.625 C 54.910156 74.625 54.882812 74.617188 54.855469 74.601562 C 54.785156 74.558594 54.765625 74.464844 54.808594 74.394531 L 56.773438 71.289062 C 56.816406 71.21875 56.910156 71.199219 56.980469 71.242188 C 57.050781 71.285156 57.070312 71.378906 57.027344 71.449219 L 55.0625 74.554688 C 55.035156 74.601562 54.988281 74.625 54.9375 74.625 Z M 53.9375 74.625 C 53.910156 74.625 53.882812 74.617188 53.855469 74.601562 C 53.785156 74.558594 53.765625 74.464844 53.808594 74.394531 L 55.773438 71.289062 C 55.816406 71.21875 55.910156 71.199219 55.980469 71.242188 C 56.050781 71.285156 56.070312 71.378906 56.027344 71.449219 L 54.0625 74.554688 C 54.035156 74.601562 53.988281 74.625 53.9375 74.625 Z M 52.9375 74.625 C 52.910156 74.625 52.882812 74.617188 52.855469 74.601562 C 52.785156 74.558594 52.765625 74.464844 52.808594 74.394531 L 54.773438 71.289062 C 54.816406 71.21875 54.910156 71.199219 54.980469 71.242188 C 55.050781 71.285156 55.070312 71.378906 55.027344 71.449219 L 53.0625 74.554688 C 53.035156 74.601562 52.988281 74.625 52.9375 74.625 Z M 51.9375 74.625 C 51.910156 74.625 51.882812 74.617188 51.855469 74.601562 C 51.785156 74.558594 51.765625 74.464844 51.808594 74.394531 L 53.105469 72.34375 C 53.152344 72.273438 53.242188 72.253906 53.3125 72.296875 C 53.382812 72.339844 53.40625 72.433594 53.359375 72.503906 L 52.0625 74.554688 C 52.035156 74.601562 51.988281 74.625 51.9375 74.625 Z M 50.9375 74.625 C 50.910156 74.625 50.882812 74.617188 50.855469 74.601562 C 50.785156 74.558594 50.765625 74.464844 50.808594 74.394531 L 51.625 73.105469 C 51.667969 73.035156 51.761719 73.015625 51.832031 73.058594 C 51.902344 73.105469 51.921875 73.195312 51.878906 73.265625 L 51.0625 74.554688 C 51.035156 74.601562 50.988281 74.625 50.9375 74.625 Z M 50.9375 74.625 "/>
</g>
</svg>
