<?xml version="1.0" encoding="UTF-8"?>
<svg xmlns="http://www.w3.org/2000/svg" xmlns:xlink="http://www.w3.org/1999/xlink" width="48pt" height="48pt" viewBox="0 0 48 48" version="1.1">
<g id="surface7217921">
<path style=" stroke:none;fill-rule:nonzero;fill:rgb(83.921569%,89.803922%,89.803922%);fill-opacity:1;" d="M 30.679688 7.863281 C 26.550781 7.367188 21.953125 7.730469 17.8125 8.152344 C 15.566406 8.378906 12.222656 9.019531 8.5 11.5 C 2.5 15.5 3.019531 18.558594 2.667969 20.421875 C 2.171875 23.027344 3.128906 27.253906 4.101562 29.714844 C 4.726562 31.285156 5.644531 32.976562 7.261719 33.417969 C 7.722656 33.546875 8.296875 33.621094 8.476562 34.066406 C 8.621094 34.425781 8.410156 34.824219 8.191406 35.144531 C 6.800781 37.1875 4.953125 38.84375 2.644531 39.703125 C 6.863281 41.117188 11.964844 40.589844 15.125 37.441406 C 16.746094 38.074219 22.582031 38.910156 24.988281 39.132812 C 26.914062 39.3125 28.851562 39.453125 30.777344 39.289062 C 33.386719 39.070312 35.929688 38.289062 38.285156 37.144531 C 40.410156 36.109375 42.445312 34.722656 43.738281 32.730469 C 45.128906 30.582031 45.53125 27.921875 45.496094 25.359375 C 45.464844 22.792969 45.597656 20.160156 44.921875 17.6875 C 43.5 12.5 41.359375 11.429688 39.5 10.5 C 37.5 9.5 33.160156 8.164062 30.679688 7.863281 Z M 30.679688 7.863281 "/>
<path style=" stroke:none;fill-rule:nonzero;fill:rgb(0%,0%,0%);fill-opacity:1;" d="M 7.195312 40.957031 C 5.648438 40.957031 4.054688 40.703125 2.484375 40.179688 C 2.285156 40.113281 2.148438 39.925781 2.144531 39.714844 C 2.140625 39.503906 2.269531 39.3125 2.46875 39.234375 C 4.539062 38.460938 6.324219 36.988281 7.78125 34.863281 C 8.027344 34.496094 8.042969 34.328125 8.011719 34.253906 C 7.953125 34.109375 7.628906 34.027344 7.34375 33.957031 L 7.128906 33.902344 C 5.214844 33.378906 4.21875 31.367188 3.636719 29.898438 C 2.5625 27.1875 1.683594 22.910156 2.175781 20.328125 C 2.222656 20.085938 2.25 19.820312 2.28125 19.539062 C 2.507812 17.597656 2.847656 14.667969 8.222656 11.085938 C 11.15625 9.128906 14.273438 8.007812 17.761719 7.652344 C 22.089844 7.214844 26.65625 6.878906 30.738281 7.367188 C 33.183594 7.660156 37.550781 8.96875 39.722656 10.054688 C 41.59375 10.988281 43.921875 12.152344 45.402344 17.554688 C 45.984375 19.671875 45.988281 21.894531 45.988281 24.046875 C 45.992188 24.480469 45.992188 24.917969 45.996094 25.351562 C 46.035156 28.484375 45.417969 31.058594 44.15625 33.003906 C 42.980469 34.816406 41.132812 36.316406 38.503906 37.59375 C 35.957031 38.835938 33.371094 39.570312 30.820312 39.785156 C 28.804688 39.957031 26.8125 39.804688 24.945312 39.632812 C 22.867188 39.4375 17.320312 38.679688 15.25 38.015625 C 13.1875 39.9375 10.292969 40.957031 7.195312 40.957031 Z M 4.097656 39.597656 C 8.15625 40.546875 12.238281 39.613281 14.773438 37.085938 C 14.914062 36.945312 15.125 36.902344 15.308594 36.976562 C 16.859375 37.582031 22.570312 38.40625 25.035156 38.636719 C 26.863281 38.804688 28.804688 38.953125 30.738281 38.789062 C 33.164062 38.585938 35.632812 37.878906 38.066406 36.695312 C 40.527344 35.5 42.246094 34.113281 43.316406 32.457031 C 44.46875 30.683594 45.035156 28.292969 44.996094 25.363281 C 44.992188 24.925781 44.992188 24.484375 44.992188 24.046875 C 44.988281 21.964844 44.984375 19.808594 44.4375 17.816406 C 43.074219 12.847656 41.058594 11.839844 39.277344 10.949219 C 37.222656 9.921875 32.933594 8.640625 30.617188 8.363281 C 26.632812 7.882812 22.132812 8.21875 17.863281 8.648438 C 14.542969 8.984375 11.570312 10.054688 8.777344 11.917969 C 3.785156 15.242188 3.492188 17.792969 3.277344 19.652344 C 3.242188 19.964844 3.207031 20.25 3.15625 20.515625 C 2.703125 22.910156 3.546875 26.949219 4.566406 29.53125 C 5.070312 30.800781 5.910156 32.53125 7.394531 32.9375 L 7.585938 32.988281 C 8.050781 33.101562 8.691406 33.261719 8.941406 33.878906 C 9.179688 34.476562 8.863281 35.050781 8.605469 35.429688 C 7.339844 37.28125 5.824219 38.683594 4.097656 39.597656 Z M 4.097656 39.597656 "/>
<path style=" stroke:none;fill-rule:nonzero;fill:rgb(0%,0%,0%);fill-opacity:1;" d="M 30.519531 18.246094 C 30.207031 18.246094 29.886719 18.242188 29.566406 18.234375 C 28.769531 18.210938 27.949219 18.1875 27.136719 17.992188 C 26.847656 17.925781 26.5625 17.832031 26.277344 17.742188 C 25.875 17.613281 25.496094 17.492188 25.113281 17.4375 C 24.519531 17.359375 23.914062 17.4375 23.265625 17.519531 C 22.78125 17.582031 22.300781 17.664062 21.769531 17.644531 C 20.96875 17.640625 20.203125 17.46875 19.460938 17.304688 C 18.890625 17.175781 18.355469 17.058594 17.8125 17.007812 C 16.039062 16.84375 14.214844 17.445312 12.605469 17.980469 C 12.34375 18.070312 12.058594 17.925781 11.972656 17.664062 C 11.886719 17.402344 12.027344 17.117188 12.289062 17.03125 C 13.988281 16.46875 15.917969 15.835938 17.902344 16.011719 C 18.511719 16.066406 19.101562 16.199219 19.675781 16.328125 C 20.398438 16.488281 21.082031 16.640625 21.773438 16.644531 C 22.21875 16.621094 22.664062 16.589844 23.136719 16.527344 C 23.820312 16.4375 24.523438 16.347656 25.246094 16.445312 C 25.71875 16.511719 26.15625 16.652344 26.582031 16.789062 C 26.84375 16.871094 27.101562 16.957031 27.367188 17.019531 C 28.078125 17.191406 28.847656 17.210938 29.59375 17.230469 C 30.945312 17.269531 32.238281 17.214844 33.488281 17.164062 C 34.753906 17.109375 36.058594 17.054688 37.449219 17.09375 C 37.726562 17.101562 37.945312 17.328125 37.9375 17.605469 C 37.929688 17.878906 37.707031 18.09375 37.4375 18.09375 C 37.433594 18.09375 37.429688 18.09375 37.421875 18.09375 C 36.070312 18.054688 34.777344 18.109375 33.527344 18.160156 C 32.558594 18.203125 31.558594 18.246094 30.519531 18.246094 Z M 30.519531 18.246094 "/>
<path style=" stroke:none;fill-rule:nonzero;fill:rgb(0%,0%,0%);fill-opacity:1;" d="M 32.472656 23.371094 C 31.128906 23.371094 29.785156 23.320312 28.472656 23.269531 C 27.117188 23.21875 25.722656 23.175781 24.339844 23.167969 C 22.984375 23.152344 21.640625 23.046875 20.328125 22.929688 C 17.6875 22.683594 15.195312 22.453125 12.808594 23.179688 C 12.542969 23.261719 12.265625 23.109375 12.1875 22.847656 C 12.105469 22.582031 12.253906 22.300781 12.519531 22.222656 C 15.09375 21.441406 17.800781 21.691406 20.417969 21.933594 C 21.6875 22.050781 22.996094 22.167969 24.265625 22.167969 C 24.351562 22.167969 24.4375 22.167969 24.519531 22.167969 C 25.851562 22.167969 27.203125 22.21875 28.511719 22.269531 C 30.796875 22.355469 33.160156 22.445312 35.460938 22.261719 C 35.730469 22.253906 35.976562 22.445312 35.996094 22.71875 C 36.019531 22.996094 35.816406 23.238281 35.539062 23.257812 C 34.519531 23.339844 33.496094 23.371094 32.472656 23.371094 Z M 32.472656 23.371094 "/>
<path style=" stroke:none;fill-rule:nonzero;fill:rgb(0%,0%,0%);fill-opacity:1;" d="M 24.535156 28.066406 C 24.535156 28.066406 24.535156 28.066406 24.53125 28.066406 L 12.765625 27.984375 C 12.492188 27.980469 12.269531 27.757812 12.269531 27.480469 C 12.273438 27.207031 12.496094 26.984375 12.769531 26.984375 C 12.769531 26.984375 12.773438 26.984375 12.773438 26.984375 L 24.539062 27.066406 C 24.816406 27.066406 25.039062 27.292969 25.035156 27.570312 C 25.035156 27.84375 24.8125 28.066406 24.535156 28.066406 Z M 24.535156 28.066406 "/>
</g>
</svg>
